<svg width="40" height="24" preserveAspectRatio="xMinYMin slice" viewbox="0 0 40 24" xmlns="http://www.w3.org/2000/svg"><g fill-rule="evenodd"><path d="M34 20.608c-.788 1.887-2.597 3.213-4.714 3.213-2.118 0-3.926-1.326-4.714-3.213h-9.396c-.788 1.887-2.596 3.213-4.714 3.213-2.117 0-3.926-1.326-4.714-3.213h-2.87C1.284 20.608 0 19.298 0 17.69v-4.382c0-2.666 2.366-4.836 4.998-4.836h.58c.109-.151.217-.306.325-.463 1.042-1.523 3.4-4.716 3.637-5.027C11.046 1.007 12.313 0 13.913 0H24.19c1.6 0 3.336.467 4.47 1.694.056.059 3.508 4.158 5.616 6.76l1.231.006c2.593.009 4.428 2.13 4.493 4.752v4.405c.04 1.606-1.21 2.949-2.803 2.99L34 20.608zm.42-2h2.724c.481-.013.87-.43.857-.966v-4.405c-.038-1.504-.98-2.772-2.507-2.777l-1.703-.01a1 1 0 01-.757-.357 1079.61 1079.61 0 01-5.84-7.04C26.53 2.334 25.283 2 24.188 2H13.913c-.77 0-1.633.685-2.784 2.196-.133.174-2.456 3.305-3.578 4.943-.218.32-.439.63-.661.93a1 1 0 01-.803.403h-1.09C3.48 10.472 2 11.737 2 13.308v4.382c0 .512.398.918.88.918h2.45c-.002-.039-.002-.078-.002-.118 0-2.933 2.289-5.33 5.135-5.33 2.847 0 5.136 2.397 5.136 5.33 0 .04 0 .079-.002.118h8.556l-.002-.118c0-2.933 2.289-5.33 5.136-5.33 2.846 0 5.135 2.397 5.135 5.33l-.001.118zm-5.134 3.213c1.72 0 3.135-1.481 3.135-3.33 0-1.85-1.414-3.331-3.135-3.331-1.721 0-3.136 1.481-3.136 3.33 0 1.85 1.415 3.331 3.136 3.331zm-18.824 0c1.721 0 3.136-1.481 3.136-3.33 0-1.85-1.415-3.331-3.136-3.331-1.72 0-3.135 1.481-3.135 3.33 0 1.85 1.414 3.331 3.135 3.331z" fill-rule="nonzero"/><path d="M10.6 8.945l2.625-3.854a3.76 3.76 0 013.108-1.643h1.787v5.497H10.6zm18.612 0h-7.52V3.448h1.64c1.324 0 2.551.657 3.23 1.73l2.65 3.767z"/></g></svg>