<svg width="40" height="24" preserveAspectRatio="xMinYMin slice" viewbox="0 0 40 24" xmlns="http://www.w3.org/2000/svg"><path d="M4.408 19.817H1.826A1.826 1.826 0 010 17.991v-5.317A3.653 3.653 0 013.653 9.02h2.975c2.05-3.47 3.427-5.655 4.128-6.555C11.807 1.115 12.926 0 14.235 0h9.988c.647 0 2.54.15 3.633 1.307.729.773 2.632 3.337 5.709 7.693l2.66.01a3.653 3.653 0 013.639 3.559L40 17.944a1.826 1.826 0 01-1.826 1.873h-2.508v-.01c0-3.417-2.698-6.187-6.027-6.187-3.328 0-6.026 2.77-6.026 6.188v.01H16.46v-.01c0-3.418-2.698-6.188-6.027-6.188-3.328 0-6.026 2.77-6.026 6.188v.01zM29.616 24c-2.219 0-4.018-1.847-4.018-4.125s1.799-4.125 4.018-4.125 4.018 1.847 4.018 4.125S31.835 24 29.616 24zm-19.364-.067c-2.22 0-4.018-1.847-4.018-4.125 0-2.279 1.799-4.125 4.018-4.125s4.018 1.846 4.018 4.125c0 2.278-1.8 4.125-4.018 4.125zm.757-15.414h7.305V2.414H16.72c-1.287 0-2.479.678-3.137 1.783L11.009 8.52zm18.08 0l-2.575-4.322a3.653 3.653 0 00-3.138-1.783h-1.592V8.52h7.305z" fill-rule="evenodd"/></svg>