<svg width="27" height="35" xmlns="http://www.w3.org/2000/svg"><path d="M23.21 31.345c0 2.015-1.657 3.655-3.692 3.655h-2.763A27.12 27.12 0 016.16 32.86L.542 30.492A.882.882 0 010 29.681V14.658c0-.413.29-.77.696-.86l1.125-.25c2.849-.631 5.211-2.697 6.165-5.39.423-1.193.783-2.754 1.168-4.833.346-1.863 1.982-3.26 3.89-3.323a4.075 4.075 0 012.981 1.136 3.991 3.991 0 011.248 2.899c.005 2.495-.227 5.155-.817 7.011h6.291c.985 0 1.912.38 2.61 1.071a3.623 3.623 0 01.046 5.121c.183.126.355.269.515.426A3.609 3.609 0 0127 20.28c-.013 1.571-1.068 2.948-2.577 3.438.434.617.662 1.347.655 2.11-.013 1.554-1.046 2.92-2.533 3.423.433.612.665 1.337.665 2.094zm-16.353-.108c3.146 1.327 6.476 2 9.898 2h2.763a1.904 1.904 0 001.912-1.892c0-.505-.199-.98-.56-1.338a1.91 1.91 0 00-1.352-.554.886.886 0 01-.89-.882c0-.487.398-.882.89-.882h1.796c1.086 0 1.976-.843 1.984-1.876.005-.51-.194-.99-.56-1.352a1.91 1.91 0 00-1.352-.555.886.886 0 01-.89-.882c0-.487.399-.882.89-.882h1.85c1.086 0 1.975-.843 1.984-1.876.004-.51-.195-.99-.56-1.352a1.91 1.91 0 00-1.352-.555h-.56a.886.886 0 01-.89-.882c0-.487.398-.882.89-.882a1.904 1.904 0 001.911-1.891c0-.505-.199-.98-.56-1.337a1.91 1.91 0 00-1.352-.555h-7.606a.892.892 0 01-.76-.422.875.875 0 01-.031-.864c.697-1.341 1.15-4.377 1.143-7.485a2.248 2.248 0 00-.704-1.634 2.321 2.321 0 00-3.884 1.237c-.399 2.153-.786 3.821-1.24 5.099-1.173 3.312-3.96 5.751-7.455 6.526l-.43.095v13.733l5.077 2.14z" fill="#00337F" fill-rule="nonzero"/></svg>