<svg width="30" height="20" preserveAspectRatio="xMinYMin slice" viewbox="0 0 30 20" xmlns="http://www.w3.org/2000/svg"><path d="M16.037 6.962l3.44-6.287c.346-.622 1.151-.856 1.798-.523.212.11.39.272.514.472l6.965 11.445a1.25 1.25 0 01-.461 1.751c-.206.118-.44.18-.68.18h-1.502l3.593 4.037c.454.51.377 1.265-.17 1.688a1.348 1.348 0 01-.822.275h-7.73c.06-.331-.03-.684-.278-.963L17.111 15h1.502c.24 0 .474-.062.68-.18a1.25 1.25 0 00.46-1.751l-3.716-6.107zM3.807 14h-1.42c-.734 0-1.328-.572-1.328-1.277 0-.21.054-.418.157-.603L7.477.675C7.823.053 8.628-.181 9.275.152c.212.11.39.272.514.472l6.965 11.445a1.25 1.25 0 01-.461 1.751c-.206.118-.44.18-.68.18h-1.502l3.593 4.037c.454.51.377 1.265-.17 1.688a1.348 1.348 0 01-.822.275H1.288C.577 20 0 19.463 0 18.802c0-.275.101-.541.287-.754L3.807 14z" fill="#005DE8" fill-rule="evenodd"/></svg>