<svg width="20" height="13" xmlns="http://www.w3.org/2000/svg"><path d="M10.692 4.526L12.985.438c.23-.404.767-.556 1.198-.34.142.072.26.178.343.307l4.643 7.44c.25.394.113.903-.307 1.138a.93.93 0 01-.453.117h-1.002l2.396 2.624c.302.332.251.823-.114 1.097a.914.914 0 01-.548.179h-5.153a.726.726 0 00-.185-.626L11.407 9.75h1.002a.93.93 0 00.453-.117c.42-.235.557-.744.307-1.138l-2.477-3.97zM2.538 9.1h-.947c-.489 0-.885-.372-.885-.83a.79.79 0 01.105-.392L4.985.438c.23-.404.767-.556 1.198-.34.142.072.26.178.343.307l4.643 7.44c.25.394.113.903-.307 1.138a.93.93 0 01-.453.117H9.407l2.396 2.624c.302.332.251.823-.114 1.097a.914.914 0 01-.548.179H.86C.384 13 0 12.651 0 12.221c0-.178.067-.351.191-.49L2.538 9.1z" fill="#FFFFFF" fill-rule="evenodd"/></svg>