<svg width="30" height="20" preserveAspectRatio="xMinYMin slice" viewbox="0 0 30 20" xmlns="http://www.w3.org/2000/svg"><path d="M21.82 18h5.035c.267 0 .525-.078.73-.22.487-.338.555-.942.152-1.35l-2.255-2.28a.557.557 0 01.396-.95c.213 0 .422-.05.604-.144.56-.289.744-.916.41-1.4l-6.191-9.157c-.11-.16-.268-.29-.457-.378-.575-.266-1.29-.079-1.598.419l-1.658 2.728-1.233-1.822 1.19-1.959c.857-1.385 2.674-1.86 4.14-1.18.508.235.947.598 1.273 1.072l6.182 9.142c.812 1.18.634 2.648-.247 3.626l.866.877c1.29 1.304 1.06 3.364-.434 4.4a3.285 3.285 0 01-1.87.576H20.54c.644-.447 1.088-1.192 1.28-2zM4.508 14.108l-2.252 2.33a.868.868 0 00-.255.603c0 .53.513.959 1.145.959h13.71c.267 0 .525-.078.73-.22.487-.338.555-.942.152-1.35l-2.255-2.28a.557.557 0 01.396-.95c.213 0 .422-.05.604-.144.56-.289.744-.916.41-1.4l-6.191-9.157c-.11-.16-.268-.29-.457-.378-.575-.266-1.29-.079-1.598.419l-5.565 9.156a.915.915 0 00-.14.482c0 .565.529 1.022 1.18 1.022a.536.536 0 01.386.908zM.94 12.178a2.9 2.9 0 01.43-1.521l5.574-9.17C7.802.102 9.62-.373 11.085.307c.508.235.947.598 1.273 1.072l6.182 9.142c.812 1.18.634 2.648-.247 3.626l.866.877c1.29 1.304 1.06 3.364-.434 4.4a3.285 3.285 0 01-1.87.576H3.145C1.479 20 0 18.762 0 17.041c0-.75.299-1.457.817-1.993l.878-.909a2.903 2.903 0 01-.754-1.96z" fill="#17B2F4" fill-rule="nonzero"/></svg>